<?xml version="1.0" encoding="UTF-8"?><svg xmlns="http://www.w3.org/2000/svg" viewBox="0 0 1209 987"><defs><style>.cls-1{fill:#0f670e;}.cls-2{fill:none;}.cls-3{fill:#da2618;}</style></defs><g id="Layer_3"><path d="M550.68,254.56c1.48-.02,2.96-.05,4.44-.05,4.71,0,9.39.12,14.05.32V78.55h21.85L559.92.32l-27.74,78.22h18.49v176.02Z"/><path d="M705.02,292.51c5.42,2.96,10.75,6.05,15.97,9.32l95.32-165.1,18.92,10.92,12.19-83.29-63.13,53.87,16.01,9.24-95.28,165.02Z"/><path d="M309.28,139.57l90.16,156.17c5.34-3.06,10.77-5.98,16.31-8.73l-90.46-156.68,18.92-10.92-66.03-52.2,15.09,81.61,16.01-9.24Z"/><path d="M819.19,400.66c3.22,5.25,6.29,10.6,9.18,16.05l157.41-90.88,10.92,18.92,52.2-66.03-81.61,15.09,9.24,16.01-157.35,90.84Z"/><path d="M126.96,315.82l159.71,92.21c3.08-5.35,6.3-10.61,9.7-15.75l-160.16-92.47,10.92-18.92-83.29-12.19,53.87,63.13,9.24-16.01Z"/><path d="M299.81,721.86c-3.5-5.08-6.84-10.27-10.03-15.56l-154.17,89.01-10.92-18.92-52.2,66.03,81.61-15.09-9.24-16.01,154.96-89.46Z"/><path d="M1126.19,555.05l-78.22-27.74v18.49h-185.42c.08,2.9.14,5.8.14,8.72,0,3.27-.07,6.53-.18,9.77h185.46v21.85l78.22-31.09Z"/><path d="M78.02,565.44h169.76c-.13-3.63-.22-7.27-.22-10.92,0-2.53.03-5.05.1-7.56H78.02v-21.85L-.2,556.19l78.22,27.74v-18.49Z"/></g><g id="Green"><rect class="cls-1" x="484.53" y="612.5" width="149.58" height="374.8"/><path class="cls-2" d="M311.42,553.68c0-136.45,110.61-247.06,247.06-247.06s247.06,110.61,247.06,247.06-110.61,247.06-247.06,247.06c-5.08,0-10.12-.17-15.13-.47v23.58c5.01.28,10.05.43,15.13.43,149.44,0,270.59-121.15,270.59-270.59s-121.15-270.59-270.59-270.59-270.59,121.15-270.59,270.59c0,108.6,63.99,202.24,156.31,245.32v-26.24c-78.91-41.25-132.78-123.87-132.78-219.08Z"/><path class="cls-1" d="M558.48,205.77c-192.14,0-347.91,155.76-347.91,347.91,0,152.1,97.62,281.39,233.62,328.67v-83.35c-92.32-43.08-156.31-136.72-156.31-245.32,0-149.44,121.15-270.59,270.59-270.59s270.59,121.15,270.59,270.59-121.15,270.59-270.59,270.59c-5.08,0-10.12-.15-15.13-.43v77.39c5.02.21,10.06.35,15.13.35,192.14,0,347.91-155.76,347.91-347.91s-155.76-347.91-347.91-347.91Z"/><path class="cls-2" d="M543.35,587.29v103.36c4.97.54,10.01.84,15.13.84,76.11,0,137.82-61.7,137.82-137.82s-61.7-137.82-137.82-137.82-137.82,61.7-137.82,137.82c0,28.54,8.67,55.05,23.53,77.04v-43.43h99.16Z"/><path class="cls-1" d="M805.54,553.68c0-136.45-110.61-247.06-247.06-247.06s-247.06,110.61-247.06,247.06c0,95.21,53.87,177.83,132.78,219.08v-142.04c-14.86-21.99-23.53-48.51-23.53-77.04,0-76.11,61.7-137.82,137.82-137.82s137.82,61.7,137.82,137.82-61.7,137.82-137.82,137.82c-5.11,0-10.16-.3-15.13-.84v109.61c5.01.3,10.05.47,15.13.47,136.45,0,247.06-110.61,247.06-247.06Z"/></g><g id="Layer_4"><rect class="cls-3" x="541.67" y="659.56" width="35.29" height="280.68" rx="10.5" ry="10.5"/><rect x="1161.85" y="814.18" width="47.06" height="163.03"/><rect x="1094.09" y="857.88" width="47.06" height="119.51"/><circle cx="1117.32" cy="820.07" r="23.53"/><path d="M1008.49,857.46c-32.95,0-59.67,26.71-59.67,59.67s26.71,59.67,59.67,59.67c3.29,0,6.52-.28,9.66-.8v-34.52c-2.94,1.36-6.21,2.12-9.66,2.12-12.76,0-23.11-10.35-23.11-23.11s10.35-23.11,23.11-23.11,22.42,9.67,23.07,21.85h.04v58.82h36.25v-54.84c.2-2,.31-4.03.31-6.09,0-32.95-26.71-59.67-59.67-59.67Z"/><path d="M925.74,902c-2.04-24.91-22.88-44.49-48.32-44.49-16.36,0-30.81,8.11-39.6,20.51-8.78-12.41-23.24-20.51-39.6-20.51-25.43,0-46.28,19.58-48.32,44.49h-.18v75.63h40.04v-65.85c0-7.37,5.98-13.35,13.35-13.35s13.35,5.98,13.35,13.35v65.85h42.71v-65.85h.02c0-.15-.02-.29-.02-.44,0-7.13,5.78-12.9,12.9-12.9s12.9,5.78,12.9,12.9c0,.15-.02.3-.02.44h.02v65.85h40.93v-75.63h-.18Z"/></g></svg>